<svg width="20" height="20" viewBox="0 0 20 20" fill="none" xmlns="http://www.w3.org/2000/svg">
<g clip-path="url(#clip0_29_85)">
<path d="M5.63337 4.03325L4.13337 2.54158L2.95837 3.71659L4.45004 5.20825L5.63337 4.03325ZM0.833374 8.74992H3.33337V10.4166H0.833374V8.74992ZM9.16671 0.458252H10.8334V2.91659H9.16671V0.458252ZM15.8667 2.53742L17.04 3.70992L15.5484 5.20158L14.3759 4.02825L15.8667 2.53742ZM14.3667 15.1333L15.8584 16.6333L17.0334 15.4583L15.5334 13.9666L14.3667 15.1333ZM16.6667 8.74992H19.1667V10.4166H16.6667V8.74992ZM10 4.58325C7.24171 4.58325 5.00004 6.82492 5.00004 9.58325C5.00004 12.3416 7.24171 14.5833 10 14.5833C12.7584 14.5833 15 12.3416 15 9.58325C15 6.82492 12.7584 4.58325 10 4.58325ZM10 12.9166C8.15837 12.9166 6.66671 11.4249 6.66671 9.58325C6.66671 7.74158 8.15837 6.24992 10 6.24992C11.8417 6.24992 13.3334 7.74158 13.3334 9.58325C13.3334 11.4249 11.8417 12.9166 10 12.9166ZM9.16671 16.2499H10.8334V18.7083H9.16671V16.2499ZM2.95837 15.4499L4.13337 16.6249L5.62504 15.1249L4.45004 13.9499L2.95837 15.4499Z" fill="#E5E5E5"/>
</g>
<defs>
<clipPath id="clip0_29_85">
<rect width="20" height="20" fill="white"/>
</clipPath>
</defs>
</svg>
